<svg aria-hidden="true" style="position: absolute; width: 0; height: 0; overflow: hidden;" version="1.1" xmlns="http://www.w3.org/2000/svg" xmlns:xlink="http://www.w3.org/1999/xlink">
<defs>
<symbol id="icon-x-white" viewBox="0 0 32 32">
<path fill="none" stroke="#fff" style="stroke: var(--color1, #fff)" stroke-linejoin="round" stroke-linecap="round" stroke-miterlimit="4" stroke-width="2.2857" d="M24 8l-16 16"></path>
<path fill="none" stroke="#fff" style="stroke: var(--color1, #fff)" stroke-linejoin="round" stroke-linecap="round" stroke-miterlimit="4" stroke-width="2.2857" d="M8 8l16 16"></path>
</symbol>
<symbol id="icon-pick" viewBox="0 0 32 32">
<path fill="#fff" style="fill: var(--color1, #fff)" d="M26.151 1.405c0.992-1.463 2.982-1.845 4.444-0.853s1.845 2.982 0.853 4.444l-17.356 25.599c-1.269 1.872-4.028 1.872-5.297 0l-8.244-12.16c-0.992-1.463-0.61-3.453 0.853-4.444s3.453-0.61 4.444 0.853l5.595 8.253 14.707-21.693z"></path>
</symbol>
<symbol id="icon-Rectangle" viewBox="0 0 32 32">
<path fill="none" stroke="#fff" style="stroke: var(--color1, #fff)" stroke-linejoin="miter" stroke-linecap="butt" stroke-miterlimit="4" stroke-width="2.4" d="M6.4 1.2h19.2c2.872 0 5.2 2.328 5.2 5.2v19.2c0 2.872-2.328 5.2-5.2 5.2h-19.2c-2.872 0-5.2-2.328-5.2-5.2v-19.2c0-2.872 2.328-5.2 5.2-5.2z"></path>
</symbol>
<symbol id="icon-x" viewBox="0 0 32 32">
<path fill="none" stroke="#ae1332" style="stroke: var(--color2, #ae1332)" stroke-linejoin="round" stroke-linecap="round" stroke-miterlimit="4" stroke-width="2.6667" d="M24 8l-16 16"></path>
<path fill="none" stroke="#ae1332" style="stroke: var(--color2, #ae1332)" stroke-linejoin="round" stroke-linecap="round" stroke-miterlimit="4" stroke-width="2.6667" d="M8 8l16 16"></path>
</symbol>
</defs>
</svg>
